<svg width="54" height="44" viewBox="0 0 66 55" fill="none" xmlns="http://www.w3.org/2000/svg">
<g filter="url(#filter0_d_22_7)">
<path d="M6 21.4286L15.2694 14.3571M59.4286 21.4286L50 14.3571M15.2694 14.3571L28.8754 3.93935C31.1386 2.20645 34.2846 2.21342 36.5401 3.95632L50 14.3571M15.2694 14.3571V38.7143C15.2694 42.1858 18.0836 45 21.5552 45H21.7143C25.1858 45 28 42.1858 28 38.7143V34C28 30.5285 30.8142 27.7143 34.2857 27.7143H37.4286M50 14.3571V29.6786V38.7143C50 42.1858 47.1858 45 43.7143 45H39.0796" stroke="#4E4E4E" stroke-width="4" stroke-linecap="round"/>
</g>
<defs>
<filter id="filter0_d_22_7" x="-0.00012207" y="0.644409" width="65.4288" height="54.3556" filterUnits="userSpaceOnUse" color-interpolation-filters="sRGB">
<feFlood flood-opacity="0" result="BackgroundImageFix"/>
<feColorMatrix in="SourceAlpha" type="matrix" values="0 0 0 0 0 0 0 0 0 0 0 0 0 0 0 0 0 0 127 0" result="hardAlpha"/>
<feOffset dy="4"/>
<feGaussianBlur stdDeviation="2"/>
<feComposite in2="hardAlpha" operator="out"/>
<feColorMatrix type="matrix" values="0 0 0 0 0 0 0 0 0 0 0 0 0 0 0 0 0 0 0.25 0"/>
<feBlend mode="normal" in2="BackgroundImageFix" result="effect1_dropShadow_22_7"/>
<feBlend mode="normal" in="SourceGraphic" in2="effect1_dropShadow_22_7" result="shape"/>
</filter>
</defs>
</svg>
